<?xml version="1.0" encoding="UTF-8" standalone="no"?>
<!DOCTYPE svg PUBLIC "-//W3C//DTD SVG 1.1//EN" "http://www.w3.org/Graphics/SVG/1.1/DTD/svg11.dtd">
<svg width="100%" height="100%" viewBox="0 0 168 196" version="1.1" xmlns="http://www.w3.org/2000/svg" xmlns:xlink="http://www.w3.org/1999/xlink" xml:space="preserve" xmlns:serif="http://www.serif.com/" style="fill-rule:evenodd;clip-rule:evenodd;stroke-linejoin:round;stroke-miterlimit:2;">
    <g transform="matrix(0.13333,0,0,-0.13333,-315.272,195.042)">
        <g>
            <g>
                <g>
                    <g>
                        <clipPath id="_clip1">
                            <path d="M3621.5,441.22L3619.91,1024.95L3115.18,733.54L3621.5,441.22Z"/>
                        </clipPath>
                        <g clip-path="url(#_clip1)">
                            <path d="M3621.5,441.22L3619.91,1024.95L3115.18,733.54L3621.5,441.22Z" style="fill-rule:nonzero;"/>
                        </g>
                    </g>
                </g>
            </g>
            <g>
                <g>
                    <g>
                        <clipPath id="_clip2">
                            <path d="M2997.8,810.28L3559.61,1134.64L2991.14,1462.85L2427.57,1139.5L2997.8,810.28Z"/>
                        </clipPath>
                        <g clip-path="url(#_clip2)">
                            <path d="M2997.8,810.28L3559.61,1134.64L2991.14,1462.85L2427.57,1139.5L2997.8,810.28" style="fill-rule:nonzero;"/>
                        </g>
                    </g>
                </g>
            </g>
            <path d="M2364.6,1031.3L2366.2,436.69L2880.34,733.53L2364.6,1031.3Z" style="fill-rule:nonzero;"/>
            <path d="M2997.8,656.82L2427.62,327.61L2995.06,0L3567.02,328.17L2997.8,656.81" style="fill-rule:nonzero;"/>
            <g>
                <g>
                    <g>
                        <clipPath id="_clip3">
                            <path d="M2997.8,656.82L2995.06,0L3564.87,328.17L2997.8,656.82Z"/>
                        </clipPath>
                        <g clip-path="url(#_clip3)">
                            <path d="M2997.8,656.82L2995.06,0L3564.87,328.17L2997.8,656.82Z" style="fill-rule:nonzero;"/>
                        </g>
                    </g>
                </g>
            </g>
        </g>
    </g>
</svg>
